M48
; DRILL file KiCad 10.0.0 date 2026-04-30T17:57:38
; FORMAT={-:-/ absolute / metric / decimal}
; #@! TF.CreationDate,2026-04-30T17:57:38+05:30
; #@! TF.GenerationSoftware,Kicad,Pcbnew,10.0.0
; #@! TF.FileFunction,NonPlated,1,2,NPTH
FMAT,2
METRIC
; #@! TA.AperFunction,NonPlated,NPTH,ComponentDrill
T1C0.500
; #@! TA.AperFunction,NonPlated,NPTH,ComponentDrill
T2C1.000
; #@! TA.AperFunction,NonPlated,NPTH,ComponentDrill
T3C2.000
; #@! TA.AperFunction,NonPlated,NPTH,ComponentDrill
T4C2.100
; #@! TA.AperFunction,NonPlated,NPTH,ComponentDrill
T5C2.500
%
G90
G05
T1
X64.968Y-118.483
X64.968Y-119.283
X64.968Y-120.083
X65.017Y-104.383
X65.017Y-105.183
X65.017Y-105.983
X67.168Y-118.483
X67.168Y-119.283
X67.168Y-120.083
X67.218Y-104.383
X67.218Y-105.183
X67.218Y-105.983
X123.917Y-47.02
X123.917Y-48.52
X124.567Y-173.47
X124.567Y-174.97
X124.767Y-47.02
X124.767Y-48.52
X125.417Y-173.47
X125.417Y-174.97
X125.617Y-47.02
X125.617Y-48.52
X126.267Y-173.47
X126.267Y-174.97
X134.417Y-173.47
X134.417Y-174.97
X135.017Y-47.02
X135.017Y-48.52
X135.267Y-173.47
X135.267Y-174.97
X135.868Y-47.02
X135.868Y-48.52
X136.118Y-173.47
X136.118Y-174.97
X136.718Y-47.02
X136.718Y-48.52
X149.567Y-91.683
X149.567Y-92.483
X149.567Y-93.283
X149.567Y-123.383
X149.567Y-124.183
X149.567Y-124.983
X151.767Y-91.683
X151.767Y-92.483
X151.767Y-93.283
X151.767Y-123.383
X151.767Y-124.183
X151.767Y-124.983
X188.867Y-99.233
X188.867Y-100.033
X188.867Y-100.833
X188.867Y-113.333
X188.867Y-114.133
X188.867Y-114.933
X191.067Y-99.233
X191.067Y-100.033
X191.067Y-100.833
X191.067Y-113.333
X191.067Y-114.133
X191.067Y-114.933
T2
X188.127Y-62.783
X188.127Y-150.283
X199.778Y-74.333
X199.778Y-138.783
X208.177Y-87.183
X208.227Y-125.983
X211.627Y-100.533
X211.627Y-112.683
X226.427Y-106.577
T3
X50.828Y-100.633
X50.828Y-122.533
X58.457Y-100.883
X58.457Y-122.283
X73.567Y-100.133
X73.567Y-121.533
X149.555Y-168.358
X150.368Y-53.008
X170.955Y-168.158
X171.767Y-53.008
X198.677Y-98.283
X198.677Y-119.683
T4
X116.567Y-62.833
X116.667Y-158.933
X141.218Y-62.833
X141.317Y-158.933
T5
X192.778Y-63.333
X192.778Y-67.133
X192.778Y-150.833
X192.778Y-154.633
X204.427Y-74.883
X204.427Y-78.683
X204.427Y-139.333
X204.427Y-143.133
X212.827Y-87.733
X212.827Y-91.533
X212.877Y-126.533
X212.877Y-130.333
X216.278Y-101.083
X216.278Y-104.883
X216.278Y-113.233
X216.278Y-117.033
X231.077Y-107.127
X231.077Y-110.927
M30
