%TF.GenerationSoftware,KiCad,Pcbnew,10.0.0*%
%TF.CreationDate,2026-04-30T17:57:32+05:30*%
%TF.ProjectId,line follower simple,6c696e65-2066-46f6-9c6c-6f7765722073,rev?*%
%TF.SameCoordinates,Original*%
%TF.FileFunction,Soldermask,Bot*%
%TF.FilePolarity,Negative*%
%FSLAX46Y46*%
G04 Gerber Fmt 4.6, Leading zero omitted, Abs format (unit mm)*
G04 Created by KiCad (PCBNEW 10.0.0) date 2026-04-30 17:57:32*
%MOMM*%
%LPD*%
G01*
G04 APERTURE LIST*
G04 Aperture macros list*
%AMRoundRect*
0 Rectangle with rounded corners*
0 $1 Rounding radius*
0 $2 $3 $4 $5 $6 $7 $8 $9 X,Y pos of 4 corners*
0 Add a 4 corners polygon primitive as box body*
4,1,4,$2,$3,$4,$5,$6,$7,$8,$9,$2,$3,0*
0 Add four circle primitives for the rounded corners*
1,1,$1+$1,$2,$3*
1,1,$1+$1,$4,$5*
1,1,$1+$1,$6,$7*
1,1,$1+$1,$8,$9*
0 Add four rect primitives between the rounded corners*
20,1,$1+$1,$2,$3,$4,$5,0*
20,1,$1+$1,$4,$5,$6,$7,0*
20,1,$1+$1,$6,$7,$8,$9,0*
20,1,$1+$1,$8,$9,$2,$3,0*%
G04 Aperture macros list end*
%ADD10C,2.000000*%
%ADD11R,1.700000X1.700000*%
%ADD12C,1.700000*%
%ADD13C,0.500000*%
%ADD14C,1.524000*%
%ADD15C,2.100000*%
%ADD16R,1.800000X1.800000*%
%ADD17C,1.800000*%
%ADD18RoundRect,0.250000X0.350000X0.625000X-0.350000X0.625000X-0.350000X-0.625000X0.350000X-0.625000X0*%
%ADD19O,1.200000X1.750000*%
%ADD20C,1.000000*%
%ADD21C,2.500000*%
%ADD22RoundRect,0.102000X-0.800000X-0.800000X0.800000X-0.800000X0.800000X0.800000X-0.800000X0.800000X0*%
%ADD23C,1.804000*%
%ADD24RoundRect,0.102000X-0.785000X0.345000X-0.785000X-0.345000X0.785000X-0.345000X0.785000X0.345000X0*%
%ADD25RoundRect,0.102000X-0.345000X-0.785000X0.345000X-0.785000X0.345000X0.785000X-0.345000X0.785000X0*%
%ADD26RoundRect,0.750000X0.750000X-0.750000X0.750000X0.750000X-0.750000X0.750000X-0.750000X-0.750000X0*%
%ADD27C,3.000000*%
%ADD28RoundRect,0.237500X-0.237500X0.250000X-0.237500X-0.250000X0.237500X-0.250000X0.237500X0.250000X0*%
G04 APERTURE END LIST*
D10*
%TO.C,H4*%
X58457500Y-100882700D03*
%TD*%
D11*
%TO.C,J19*%
X148305000Y-57507700D03*
D12*
X150845000Y-57507700D03*
X153385000Y-57507700D03*
X155925000Y-57507700D03*
X158465000Y-57507700D03*
X161005000Y-57507700D03*
X163545000Y-57507700D03*
X166085000Y-57507700D03*
X168625000Y-57507700D03*
X171165000Y-57507700D03*
X173705000Y-57507700D03*
%TD*%
D13*
%TO.C,mouse-bite-2.54mm-slot*%
X149567500Y-124982700D03*
X151767500Y-124982700D03*
X149567500Y-124182700D03*
X151767500Y-124182700D03*
X149567500Y-123382700D03*
X151767500Y-123382700D03*
%TD*%
%TO.C,REF\u002A\u002A*%
X124567500Y-173470200D03*
X124567500Y-174970200D03*
X125417500Y-173470200D03*
X125417500Y-174970200D03*
X126267500Y-173470200D03*
X126267500Y-174970200D03*
%TD*%
D14*
%TO.C,BlackPill1*%
X85147500Y-133092700D03*
X85147500Y-130552700D03*
X85147500Y-128012700D03*
X85147500Y-125472700D03*
X85147500Y-122932700D03*
X85147500Y-120392700D03*
X85147500Y-117852700D03*
X85147500Y-115312700D03*
X85147500Y-112772700D03*
X85147500Y-110232700D03*
X85147500Y-107692700D03*
X85147500Y-105152700D03*
X85147500Y-102612700D03*
X85147500Y-100072700D03*
X85147500Y-97532700D03*
X85147500Y-94992700D03*
X85147500Y-92452700D03*
X85147500Y-89912700D03*
X85147500Y-87372700D03*
X85147500Y-84832700D03*
X100387500Y-133092700D03*
X100387500Y-130552700D03*
X100387500Y-128012700D03*
X100387500Y-125472700D03*
X100387500Y-122932700D03*
X100387500Y-120392700D03*
X100387500Y-117852700D03*
X100387500Y-115312700D03*
X100387500Y-112772700D03*
X100387500Y-110232700D03*
X100387500Y-107692700D03*
X100387500Y-105152700D03*
X100387500Y-102612700D03*
X100387500Y-100072700D03*
X100387500Y-97532700D03*
X100387500Y-94992700D03*
X100387500Y-92452700D03*
X100387500Y-89912700D03*
X100387500Y-87372700D03*
X100387500Y-84832700D03*
%TD*%
%TO.C,MP1*%
X181960000Y-112870000D03*
X179500000Y-112850000D03*
X169540000Y-112830000D03*
X167000000Y-112850000D03*
X182000000Y-135350000D03*
X179540000Y-135350000D03*
X169580000Y-135330000D03*
X166980000Y-135310000D03*
%TD*%
D13*
%TO.C,REF\u002A\u002A*%
X135017500Y-47020200D03*
X135017500Y-48520200D03*
X135867500Y-47020200D03*
X135867500Y-48520200D03*
X136717500Y-47020200D03*
X136717500Y-48520200D03*
%TD*%
D10*
%TO.C,H2*%
X73567500Y-100132700D03*
%TD*%
D13*
%TO.C,REF\u002A\u002A*%
X134417500Y-173470200D03*
X134417500Y-174970200D03*
X135267500Y-173470200D03*
X135267500Y-174970200D03*
X136117500Y-173470200D03*
X136117500Y-174970200D03*
%TD*%
%TO.C,mouse-bite-2.54mm-slot*%
X65017500Y-105982700D03*
X67217500Y-105982700D03*
X65017500Y-105182700D03*
X67217500Y-105182700D03*
X65017500Y-104382700D03*
X67217500Y-104382700D03*
%TD*%
D10*
%TO.C,H1*%
X73567500Y-121532700D03*
%TD*%
D15*
%TO.C,REF\u002A\u002A*%
X141317500Y-158932700D03*
%TD*%
D12*
%TO.C,TB1*%
X180870000Y-100790200D03*
X180870000Y-98250200D03*
X180870000Y-95710200D03*
X180870000Y-93170200D03*
X180870000Y-90630200D03*
X180870000Y-88090200D03*
X180870000Y-85550200D03*
X180870000Y-83010200D03*
X168170000Y-100790200D03*
X168170000Y-98250200D03*
X168170000Y-95710200D03*
X168170000Y-93170200D03*
X168170000Y-90630200D03*
X168170000Y-88090200D03*
X168170000Y-85550200D03*
X168170000Y-83010200D03*
%TD*%
D11*
%TO.C,J16*%
X69417500Y-123532700D03*
D12*
X69417500Y-120992700D03*
X69417500Y-118452700D03*
X69417500Y-115912700D03*
X69417500Y-113372700D03*
X69417500Y-110832700D03*
X69417500Y-108292700D03*
X69417500Y-105752700D03*
X69417500Y-103212700D03*
X69417500Y-100672700D03*
X69417500Y-98132700D03*
%TD*%
D11*
%TO.C,J17*%
X193177500Y-96112700D03*
D12*
X193177500Y-98652700D03*
X193177500Y-101192700D03*
X193177500Y-103732700D03*
X193177500Y-106272700D03*
X193177500Y-108812700D03*
X193177500Y-111352700D03*
X193177500Y-113892700D03*
X193177500Y-116432700D03*
X193177500Y-118972700D03*
X193177500Y-121512700D03*
%TD*%
D11*
%TO.C,J10*%
X109986100Y-144963700D03*
D12*
X112526100Y-144963700D03*
X115066100Y-144963700D03*
X117606100Y-144963700D03*
X120146100Y-144963700D03*
X122686100Y-144963700D03*
X125226100Y-144963700D03*
X127766100Y-144963700D03*
X130306100Y-144963700D03*
X132846100Y-144963700D03*
X135386100Y-144963700D03*
X137926100Y-144963700D03*
X140466100Y-144963700D03*
%TD*%
D11*
%TO.C,BT2*%
X83727500Y-143932700D03*
D12*
X86267500Y-143932700D03*
X88807500Y-143932700D03*
X91347500Y-143932700D03*
X93887500Y-143932700D03*
X96427500Y-143932700D03*
%TD*%
D10*
%TO.C,H12*%
X171767500Y-53007700D03*
%TD*%
D13*
%TO.C,mouse-bite-2.54mm-slot*%
X64967500Y-120082700D03*
X67167500Y-120082700D03*
X64967500Y-119282700D03*
X67167500Y-119282700D03*
X64967500Y-118482700D03*
X67167500Y-118482700D03*
%TD*%
D10*
%TO.C,H10*%
X149555000Y-168357700D03*
%TD*%
D11*
%TO.C,J11*%
X109986100Y-76383700D03*
D12*
X112526100Y-76383700D03*
X115066100Y-76383700D03*
X117606100Y-76383700D03*
X120146100Y-76383700D03*
X122686100Y-76383700D03*
X125226100Y-76383700D03*
X127766100Y-76383700D03*
X130306100Y-76383700D03*
X132846100Y-76383700D03*
X135386100Y-76383700D03*
X137926100Y-76383700D03*
X140466100Y-76383700D03*
%TD*%
D15*
%TO.C,REF\u002A\u002A*%
X141217500Y-62832700D03*
%TD*%
D10*
%TO.C,H11*%
X150367500Y-53007700D03*
%TD*%
%TO.C,H3*%
X58457500Y-122282700D03*
%TD*%
%TO.C,H8*%
X198677500Y-119682700D03*
%TD*%
D16*
%TO.C,SW6*%
X159917500Y-121782700D03*
D17*
X157417500Y-121782700D03*
X154917500Y-121782700D03*
X159917500Y-115782700D03*
X157417500Y-115782700D03*
X154917500Y-115782700D03*
%TD*%
D10*
%TO.C,H7*%
X198677500Y-98282700D03*
%TD*%
%TO.C,H9*%
X170955000Y-168157700D03*
%TD*%
D13*
%TO.C,mouse-bite-2.54mm-slot*%
X149567500Y-93282700D03*
X151767500Y-93282700D03*
X149567500Y-92482700D03*
X151767500Y-92482700D03*
X149567500Y-91682700D03*
X151767500Y-91682700D03*
%TD*%
%TO.C,mouse-bite-2.54mm-slot*%
X188867500Y-114932700D03*
X191067500Y-114932700D03*
X188867500Y-114132700D03*
X191067500Y-114132700D03*
X188867500Y-113332700D03*
X191067500Y-113332700D03*
%TD*%
D16*
%TO.C,SW5*%
X159917500Y-96382700D03*
D17*
X157417500Y-96382700D03*
X154917500Y-96382700D03*
X159917500Y-90382700D03*
X157417500Y-90382700D03*
X154917500Y-90382700D03*
%TD*%
D11*
%TO.C,J15*%
X62777500Y-98922700D03*
D12*
X62777500Y-101462700D03*
X62777500Y-104002700D03*
X62777500Y-106542700D03*
X62777500Y-109082700D03*
X62777500Y-111622700D03*
X62777500Y-114162700D03*
X62777500Y-116702700D03*
X62777500Y-119242700D03*
X62777500Y-121782700D03*
X62777500Y-124322700D03*
%TD*%
D13*
%TO.C,REF\u002A\u002A*%
X123917500Y-47020200D03*
X123917500Y-48520200D03*
X124767500Y-47020200D03*
X124767500Y-48520200D03*
X125617500Y-47020200D03*
X125617500Y-48520200D03*
%TD*%
D10*
%TO.C,H5*%
X50827500Y-122532700D03*
%TD*%
D11*
%TO.C,J12*%
X184253600Y-75484400D03*
D12*
X181713600Y-75484400D03*
X179173600Y-75484400D03*
X176633600Y-75484400D03*
X174093600Y-75484400D03*
X171553600Y-75484400D03*
X169013600Y-75484400D03*
X166473600Y-75484400D03*
X163933600Y-75484400D03*
X161393600Y-75484400D03*
X158853600Y-75484400D03*
X156313600Y-75484400D03*
X153773600Y-75484400D03*
%TD*%
D13*
%TO.C,mouse-bite-2.54mm-slot*%
X188867500Y-100832700D03*
X191067500Y-100832700D03*
X188867500Y-100032700D03*
X191067500Y-100032700D03*
X188867500Y-99232700D03*
X191067500Y-99232700D03*
%TD*%
D11*
%TO.C,J5*%
X186793600Y-75484400D03*
D12*
X186793600Y-78024400D03*
X186793600Y-80564400D03*
X186793600Y-83104400D03*
X186793600Y-85644400D03*
X186793600Y-88184400D03*
X186793600Y-90724400D03*
X186793600Y-93264400D03*
X186793600Y-95804400D03*
X186793600Y-98344400D03*
X186793600Y-100884400D03*
X186793600Y-103424400D03*
X186793600Y-105964400D03*
X186793600Y-108504400D03*
X186793600Y-111044400D03*
X186793600Y-113584400D03*
X186793600Y-116124400D03*
X186793600Y-118664400D03*
X186793600Y-121204400D03*
X186793600Y-123744400D03*
X186793600Y-126284400D03*
X186793600Y-128824400D03*
X186793600Y-131364400D03*
X186793600Y-133904400D03*
X186793600Y-136444400D03*
X186793600Y-138984400D03*
X186793600Y-141524400D03*
X186793600Y-144064400D03*
%TD*%
D11*
%TO.C,J18*%
X173005000Y-163707700D03*
D12*
X170465000Y-163707700D03*
X167925000Y-163707700D03*
X165385000Y-163707700D03*
X162845000Y-163707700D03*
X160305000Y-163707700D03*
X157765000Y-163707700D03*
X155225000Y-163707700D03*
X152685000Y-163707700D03*
X150145000Y-163707700D03*
X147605000Y-163707700D03*
%TD*%
D18*
%TO.C,J3*%
X117367500Y-150082700D03*
D19*
X115367500Y-150082700D03*
%TD*%
D15*
%TO.C,REF\u002A\u002A*%
X116567500Y-62832700D03*
%TD*%
D11*
%TO.C,J8*%
X107446100Y-144963700D03*
D12*
X107446100Y-142423700D03*
X107446100Y-139883700D03*
X107446100Y-137343700D03*
X107446100Y-134803700D03*
X107446100Y-132263700D03*
X107446100Y-129723700D03*
X107446100Y-127183700D03*
X107446100Y-124643700D03*
X107446100Y-122103700D03*
X107446100Y-119563700D03*
X107446100Y-117023700D03*
X107446100Y-114483700D03*
X107446100Y-111943700D03*
X107446100Y-109403700D03*
X107446100Y-106863700D03*
X107446100Y-104323700D03*
X107446100Y-101783700D03*
X107446100Y-99243700D03*
X107446100Y-96703700D03*
X107446100Y-94163700D03*
X107446100Y-91623700D03*
X107446100Y-89083700D03*
X107446100Y-86543700D03*
X107446100Y-84003700D03*
X107446100Y-81463700D03*
X107446100Y-78923700D03*
X107446100Y-76383700D03*
%TD*%
D11*
%TO.C,J13*%
X184253600Y-144064400D03*
D12*
X181713600Y-144064400D03*
X179173600Y-144064400D03*
X176633600Y-144064400D03*
X174093600Y-144064400D03*
X171553600Y-144064400D03*
X169013600Y-144064400D03*
X166473600Y-144064400D03*
X163933600Y-144064400D03*
X161393600Y-144064400D03*
X158853600Y-144064400D03*
X156313600Y-144064400D03*
X153773600Y-144064400D03*
%TD*%
D18*
%TO.C,J4*%
X118017500Y-72382700D03*
D19*
X116017500Y-72382700D03*
%TD*%
D10*
%TO.C,H6*%
X50827500Y-100632700D03*
%TD*%
D15*
%TO.C,REF\u002A\u002A*%
X116667500Y-158932700D03*
%TD*%
D20*
%TO.C,U8*%
X208177500Y-87182700D03*
D21*
X212827500Y-87732700D03*
X212827500Y-91532700D03*
D22*
X210077500Y-90902700D03*
D23*
X210077500Y-88362700D03*
X215577500Y-88362700D03*
X215577500Y-90902700D03*
%TD*%
D20*
%TO.C,U4*%
X199777500Y-138782700D03*
D21*
X204427500Y-139332700D03*
X204427500Y-143132700D03*
D22*
X201677500Y-142502700D03*
D23*
X201677500Y-139962700D03*
X207177500Y-139962700D03*
X207177500Y-142502700D03*
%TD*%
D24*
%TO.C,U15*%
X29802500Y-125732700D03*
X33752500Y-125732700D03*
X33752500Y-127532700D03*
X29802500Y-127532700D03*
%TD*%
D20*
%TO.C,U6*%
X211627500Y-112682700D03*
D21*
X216277500Y-113232700D03*
X216277500Y-117032700D03*
D22*
X213527500Y-116402700D03*
D23*
X213527500Y-113862700D03*
X219027500Y-113862700D03*
X219027500Y-116402700D03*
%TD*%
D16*
%TO.C,D7*%
X133742500Y-39007700D03*
D17*
X131202500Y-39007700D03*
%TD*%
D16*
%TO.C,D2*%
X145142500Y-39007700D03*
D17*
X142602500Y-39007700D03*
%TD*%
D24*
%TO.C,U11*%
X64452500Y-170582700D03*
X68402500Y-170582700D03*
X68402500Y-172382700D03*
X64452500Y-172382700D03*
%TD*%
D20*
%TO.C,U20*%
X226427500Y-106576986D03*
D21*
X231077500Y-107126986D03*
X231077500Y-110926986D03*
D22*
X228327500Y-110296986D03*
D23*
X228327500Y-107756986D03*
X233827500Y-107756986D03*
X233827500Y-110296986D03*
%TD*%
D20*
%TO.C,U9*%
X199777500Y-74332700D03*
D21*
X204427500Y-74882700D03*
X204427500Y-78682700D03*
D22*
X201677500Y-78052700D03*
D23*
X201677500Y-75512700D03*
X207177500Y-75512700D03*
X207177500Y-78052700D03*
%TD*%
D16*
%TO.C,Q5*%
X156607500Y-32507700D03*
D17*
X154067500Y-32507700D03*
%TD*%
D24*
%TO.C,U25*%
X54552500Y-56732700D03*
X58502500Y-56732700D03*
X58502500Y-58532700D03*
X54552500Y-58532700D03*
%TD*%
D25*
%TO.C,U30*%
X184342500Y-183257700D03*
X184342500Y-179307700D03*
X186142500Y-179307700D03*
X186142500Y-183257700D03*
%TD*%
D24*
%TO.C,U24*%
X43852500Y-65732700D03*
X47802500Y-65732700D03*
X47802500Y-67532700D03*
X43852500Y-67532700D03*
%TD*%
D25*
%TO.C,U34*%
X144342500Y-183232700D03*
X144342500Y-179282700D03*
X146142500Y-179282700D03*
X146142500Y-183232700D03*
%TD*%
D24*
%TO.C,U16*%
X29802500Y-105732700D03*
X33752500Y-105732700D03*
X33752500Y-107532700D03*
X29802500Y-107532700D03*
%TD*%
%TO.C,U13*%
X38802500Y-145732700D03*
X42752500Y-145732700D03*
X42752500Y-147532700D03*
X38802500Y-147532700D03*
%TD*%
D16*
%TO.C,D6*%
X162292500Y-23457700D03*
D17*
X159752500Y-23457700D03*
%TD*%
D20*
%TO.C,U19*%
X188127500Y-62782700D03*
D21*
X192777500Y-63332700D03*
X192777500Y-67132700D03*
D22*
X190027500Y-66502700D03*
D23*
X190027500Y-63962700D03*
X195527500Y-63962700D03*
X195527500Y-66502700D03*
%TD*%
D20*
%TO.C,U5*%
X208227500Y-125982700D03*
D21*
X212877500Y-126532700D03*
X212877500Y-130332700D03*
D22*
X210127500Y-129702700D03*
D23*
X210127500Y-127162700D03*
X215627500Y-127162700D03*
X215627500Y-129702700D03*
%TD*%
D16*
%TO.C,Q9*%
X162292500Y-17007700D03*
D17*
X159752500Y-17007700D03*
%TD*%
D24*
%TO.C,U26*%
X64452500Y-51332700D03*
X68402500Y-51332700D03*
X68402500Y-53132700D03*
X64452500Y-53132700D03*
%TD*%
D20*
%TO.C,U7*%
X211627500Y-100532700D03*
D21*
X216277500Y-101082700D03*
X216277500Y-104882700D03*
D22*
X213527500Y-104252700D03*
D23*
X213527500Y-101712700D03*
X219027500Y-101712700D03*
X219027500Y-104252700D03*
%TD*%
D25*
%TO.C,U32*%
X164342500Y-183182700D03*
X164342500Y-179232700D03*
X166142500Y-179232700D03*
X166142500Y-183182700D03*
%TD*%
D24*
%TO.C,U27*%
X75802500Y-49932700D03*
X79752500Y-49932700D03*
X79752500Y-51732700D03*
X75802500Y-51732700D03*
%TD*%
D20*
%TO.C,U2*%
X188127500Y-150282700D03*
D21*
X192777500Y-150832700D03*
X192777500Y-154632700D03*
D22*
X190027500Y-154002700D03*
D23*
X190027500Y-151462700D03*
X195527500Y-151462700D03*
X195527500Y-154002700D03*
%TD*%
D16*
%TO.C,Q2*%
X168042500Y-32507700D03*
D17*
X165502500Y-32507700D03*
%TD*%
D24*
%TO.C,U17*%
X29802500Y-95732700D03*
X33752500Y-95732700D03*
X33752500Y-97532700D03*
X29802500Y-97532700D03*
%TD*%
%TO.C,U23*%
X38802500Y-75732700D03*
X42752500Y-75732700D03*
X42752500Y-77532700D03*
X38802500Y-77532700D03*
%TD*%
D16*
%TO.C,Q3*%
X133742500Y-32557700D03*
D17*
X131202500Y-32557700D03*
%TD*%
D25*
%TO.C,U29*%
X154342500Y-183232700D03*
X154342500Y-179282700D03*
X156142500Y-179282700D03*
X156142500Y-183232700D03*
%TD*%
D16*
%TO.C,D3*%
X179442500Y-39007700D03*
D17*
X176902500Y-39007700D03*
%TD*%
D24*
%TO.C,U12*%
X54552500Y-164582700D03*
X58502500Y-164582700D03*
X58502500Y-166382700D03*
X54552500Y-166382700D03*
%TD*%
%TO.C,U22*%
X29802500Y-115732700D03*
X33752500Y-115732700D03*
X33752500Y-117532700D03*
X29802500Y-117532700D03*
%TD*%
D26*
%TO.C,J1*%
X144967500Y-139982700D03*
D27*
X144967500Y-134982700D03*
%TD*%
D16*
%TO.C,Q7*%
X179442500Y-32557700D03*
D17*
X176902500Y-32557700D03*
%TD*%
D16*
%TO.C,Q6*%
X122292500Y-32557700D03*
D17*
X119752500Y-32557700D03*
%TD*%
D28*
%TO.C,R5*%
X136017500Y-129470200D03*
X136017500Y-131295200D03*
%TD*%
D25*
%TO.C,U28*%
X124342500Y-183232700D03*
X124342500Y-179282700D03*
X126142500Y-179282700D03*
X126142500Y-183232700D03*
%TD*%
%TO.C,U33*%
X194342500Y-183232700D03*
X194342500Y-179282700D03*
X196142500Y-179282700D03*
X196142500Y-183232700D03*
%TD*%
D24*
%TO.C,U10*%
X75802500Y-171732700D03*
X79752500Y-171732700D03*
X79752500Y-173532700D03*
X75802500Y-173532700D03*
%TD*%
D25*
%TO.C,U36*%
X159342500Y-198182700D03*
X159342500Y-194232700D03*
X161142500Y-194232700D03*
X161142500Y-198182700D03*
%TD*%
D24*
%TO.C,U14*%
X36302500Y-135732700D03*
X40252500Y-135732700D03*
X40252500Y-137532700D03*
X36302500Y-137532700D03*
%TD*%
D16*
%TO.C,D8*%
X156617500Y-38957700D03*
D17*
X154077500Y-38957700D03*
%TD*%
D24*
%TO.C,U18*%
X36302500Y-85732700D03*
X40252500Y-85732700D03*
X40252500Y-87532700D03*
X36302500Y-87532700D03*
%TD*%
D16*
%TO.C,D1*%
X122292500Y-39007700D03*
D17*
X119752500Y-39007700D03*
%TD*%
D25*
%TO.C,U35*%
X174342500Y-183232700D03*
X174342500Y-179282700D03*
X176142500Y-179282700D03*
X176142500Y-183232700D03*
%TD*%
D16*
%TO.C,D4*%
X190892500Y-38957700D03*
D17*
X188352500Y-38957700D03*
%TD*%
D16*
%TO.C,Q8*%
X145142500Y-32557700D03*
D17*
X142602500Y-32557700D03*
%TD*%
D16*
%TO.C,D9*%
X168042500Y-38957700D03*
D17*
X165502500Y-38957700D03*
%TD*%
D16*
%TO.C,Q4*%
X190892500Y-32507700D03*
D17*
X188352500Y-32507700D03*
%TD*%
D24*
%TO.C,U21*%
X43852500Y-155732700D03*
X47802500Y-155732700D03*
X47802500Y-157532700D03*
X43852500Y-157532700D03*
%TD*%
D25*
%TO.C,U31*%
X134342500Y-183232700D03*
X134342500Y-179282700D03*
X136142500Y-179282700D03*
X136142500Y-183232700D03*
%TD*%
D28*
%TO.C,R6*%
X136067500Y-124970200D03*
X136067500Y-126795200D03*
%TD*%
D16*
%TO.C,D5*%
X202342500Y-39007700D03*
D17*
X199802500Y-39007700D03*
%TD*%
D16*
%TO.C,Q1*%
X202342500Y-32557700D03*
D17*
X199802500Y-32557700D03*
%TD*%
M02*
