M48
; DRILL file KiCad 10.0.0 date 2026-04-30T17:57:38
; FORMAT={-:-/ absolute / metric / decimal}
; #@! TF.CreationDate,2026-04-30T17:57:38+05:30
; #@! TF.GenerationSoftware,Kicad,Pcbnew,10.0.0
; #@! TF.FileFunction,Plated,1,2,PTH
FMAT,2
METRIC
; #@! TA.AperFunction,Plated,PTH,ViaDrill
T1C0.300
; #@! TA.AperFunction,Plated,PTH,ComponentDrill
T2C0.750
; #@! TA.AperFunction,Plated,PTH,ComponentDrill
T3C0.762
; #@! TA.AperFunction,Plated,PTH,ComponentDrill
T4C0.900
; #@! TA.AperFunction,Plated,PTH,ComponentDrill
T5C1.000
; #@! TA.AperFunction,Plated,PTH,ComponentDrill
T6C1.800
%
G90
G05
T1
X28.607Y-111.633
X29.157Y-102.283
X29.407Y-121.883
X29.527Y-95.67
X29.577Y-99.133
X29.677Y-105.72
X29.727Y-125.77
X29.777Y-115.82
X29.777Y-119.283
X31.377Y-97.445
X31.627Y-127.595
X31.727Y-117.645
X31.727Y-124.033
X31.777Y-107.595
X31.827Y-104.083
X32.157Y-91.533
X33.258Y-132.233
X35.927Y-107.383
X36.177Y-85.72
X36.227Y-89.833
X36.328Y-135.77
X36.657Y-81.983
X36.907Y-141.933
X38.057Y-127.383
X38.177Y-87.395
X38.207Y-96.083
X38.377Y-133.883
X38.377Y-137.595
X38.477Y-75.57
X38.477Y-79.283
X38.677Y-145.77
X39.508Y-111.033
X39.858Y-71.433
X40.427Y-77.295
X40.777Y-144.233
X40.777Y-147.595
X41.008Y-151.983
X43.527Y-70.383
X43.578Y-65.87
X43.927Y-155.67
X45.527Y-67.595
X45.877Y-153.633
X45.877Y-157.495
X48.407Y-110.683
X50.258Y-61.633
X50.657Y-161.533
X52.307Y-103.333
X52.707Y-119.333
X53.177Y-106.983
X53.177Y-116.483
X54.377Y-56.62
X54.427Y-164.57
X54.578Y-60.233
X56.277Y-58.445
X56.377Y-166.295
X56.427Y-108.283
X56.427Y-162.883
X57.127Y-110.783
X60.207Y-53.033
X61.307Y-169.083
X64.127Y-54.283
X64.177Y-51.27
X64.227Y-170.67
X66.078Y-53.095
X66.127Y-168.983
X66.127Y-172.445
X71.407Y-172.833
X71.608Y-49.633
X72.468Y-107.533
X73.567Y-103.083
X73.718Y-118.333
X73.778Y-51.733
X73.927Y-173.533
X74.117Y-106.683
X75.578Y-171.72
X75.677Y-49.72
X76.968Y-106.383
X77.017Y-111.083
X77.067Y-116.278
X77.528Y-173.345
X77.627Y-51.545
X79.667Y-115.778
X86.617Y-108.833
X86.617Y-111.633
X89.167Y-127.133
X90.968Y-89.683
X91.767Y-146.833
X95.667Y-74.383
X97.067Y-99.683
X97.767Y-124.883
X109.417Y-148.533
X109.468Y-72.783
X110.968Y-125.683
X111.067Y-110.733
X111.167Y-89.883
X111.218Y-138.433
X111.367Y-99.583
X111.517Y-79.333
X117.468Y-118.133
X117.517Y-104.983
X117.567Y-93.883
X117.667Y-132.333
X118.017Y-84.083
X118.455Y-36.508
X123.218Y-125.983
X123.617Y-88.983
X123.617Y-99.183
X123.617Y-109.583
X123.718Y-69.783
X124.117Y-78.683
X124.343Y-183.233
X124.468Y-152.083
X126.142Y-179.283
X129.505Y-36.758
X130.005Y-182.033
X132.917Y-72.283
X134.343Y-183.233
X134.968Y-121.383
X136.105Y-179.358
X136.417Y-149.833
X139.517Y-128.283
X139.905Y-182.233
X140.817Y-69.133
X141.105Y-36.258
X143.667Y-145.133
X143.968Y-76.383
X144.33Y-183.408
X146.105Y-179.358
X147.718Y-128.133
X150.067Y-35.458
X150.155Y-181.783
X154.32Y-106.48
X154.33Y-183.358
X155.118Y-47.508
X155.37Y-80.08
X155.743Y-173.258
X156.142Y-179.283
X157.82Y-134.68
X159.33Y-198.358
X161.155Y-194.208
X163.73Y-21.108
X163.955Y-36.658
X164.33Y-183.308
X165.642Y-173.258
X166.142Y-179.233
X166.867Y-47.408
X168.37Y-106.93
X170.305Y-182.083
X172.57Y-91.48
X174.343Y-183.233
X175.355Y-36.708
X176.142Y-179.283
X180.355Y-182.233
X182.42Y-106.58
X183.32Y-78.63
X183.37Y-139.83
X184.343Y-183.258
X186.142Y-179.308
X186.555Y-36.508
X190.255Y-182.083
X191.794Y-59.887
X191.827Y-70.633
X193.627Y-158.633
X194.343Y-183.233
X196.142Y-179.283
X196.144Y-148.437
X196.778Y-111.713
X198.255Y-36.658
X198.477Y-112.413
X202.877Y-114.333
X202.952Y-103.033
X203.327Y-82.383
X203.427Y-147.483
X203.544Y-71.287
X205.444Y-136.887
X211.627Y-95.733
X212.028Y-134.783
X212.094Y-83.887
X212.444Y-123.637
X215.077Y-121.333
X215.127Y-109.333
X215.594Y-97.587
X218.744Y-111.487
X230.077Y-114.183
X230.894Y-104.137
T2
X115.367Y-150.083
X116.017Y-72.383
X117.367Y-150.083
X118.017Y-72.383
T3
X85.147Y-84.833
X85.147Y-87.373
X85.147Y-89.913
X85.147Y-92.453
X85.147Y-94.993
X85.147Y-97.533
X85.147Y-100.073
X85.147Y-102.613
X85.147Y-105.153
X85.147Y-107.693
X85.147Y-110.233
X85.147Y-112.773
X85.147Y-115.313
X85.147Y-117.853
X85.147Y-120.393
X85.147Y-122.933
X85.147Y-125.473
X85.147Y-128.013
X85.147Y-130.553
X85.147Y-133.093
X100.387Y-84.833
X100.387Y-87.373
X100.387Y-89.913
X100.387Y-92.453
X100.387Y-94.993
X100.387Y-97.533
X100.387Y-100.073
X100.387Y-102.613
X100.387Y-105.153
X100.387Y-107.693
X100.387Y-110.233
X100.387Y-112.773
X100.387Y-115.313
X100.387Y-117.853
X100.387Y-120.393
X100.387Y-122.933
X100.387Y-125.473
X100.387Y-128.013
X100.387Y-130.553
X100.387Y-133.093
X166.98Y-135.31
X167.0Y-112.85
X169.54Y-112.83
X169.58Y-135.33
X179.5Y-112.85
X179.54Y-135.35
X181.96Y-112.87
X182.0Y-135.35
T4
X119.752Y-32.558
X119.752Y-39.008
X122.292Y-32.558
X122.292Y-39.008
X131.202Y-32.558
X131.202Y-39.008
X133.743Y-32.558
X133.743Y-39.008
X142.602Y-32.558
X142.602Y-39.008
X145.142Y-32.558
X145.142Y-39.008
X154.067Y-32.508
X154.077Y-38.958
X154.917Y-90.383
X154.917Y-96.383
X154.917Y-115.783
X154.917Y-121.783
X156.607Y-32.508
X156.618Y-38.958
X157.417Y-90.383
X157.417Y-96.383
X157.417Y-115.783
X157.417Y-121.783
X159.752Y-17.008
X159.752Y-23.458
X159.917Y-90.383
X159.917Y-96.383
X159.917Y-115.783
X159.917Y-121.783
X162.292Y-17.008
X162.292Y-23.458
X165.502Y-32.508
X165.502Y-38.958
X168.042Y-32.508
X168.042Y-38.958
X176.903Y-32.558
X176.903Y-39.008
X179.442Y-32.558
X179.442Y-39.008
X188.352Y-32.508
X188.352Y-38.958
X190.892Y-32.508
X190.892Y-38.958
X199.802Y-32.558
X199.802Y-39.008
X202.343Y-32.558
X202.343Y-39.008
T5
X62.777Y-98.923
X62.777Y-101.463
X62.777Y-104.003
X62.777Y-106.543
X62.777Y-109.083
X62.777Y-111.623
X62.777Y-114.163
X62.777Y-116.703
X62.777Y-119.243
X62.777Y-121.783
X62.777Y-124.323
X69.417Y-98.133
X69.417Y-100.673
X69.417Y-103.213
X69.417Y-105.753
X69.417Y-108.293
X69.417Y-110.833
X69.417Y-113.373
X69.417Y-115.913
X69.417Y-118.453
X69.417Y-120.993
X69.417Y-123.533
X83.727Y-143.933
X86.267Y-143.933
X88.807Y-143.933
X91.347Y-143.933
X93.888Y-143.933
X96.427Y-143.933
X107.446Y-76.384
X107.446Y-78.924
X107.446Y-81.464
X107.446Y-84.004
X107.446Y-86.544
X107.446Y-89.084
X107.446Y-91.624
X107.446Y-94.164
X107.446Y-96.704
X107.446Y-99.244
X107.446Y-101.784
X107.446Y-104.324
X107.446Y-106.864
X107.446Y-109.404
X107.446Y-111.944
X107.446Y-114.484
X107.446Y-117.024
X107.446Y-119.564
X107.446Y-122.104
X107.446Y-124.644
X107.446Y-127.184
X107.446Y-129.724
X107.446Y-132.264
X107.446Y-134.804
X107.446Y-137.344
X107.446Y-139.884
X107.446Y-142.424
X107.446Y-144.964
X109.986Y-76.384
X109.986Y-144.964
X112.526Y-76.384
X112.526Y-144.964
X115.066Y-76.384
X115.066Y-144.964
X117.606Y-76.384
X117.606Y-144.964
X120.146Y-76.384
X120.146Y-144.964
X122.686Y-76.384
X122.686Y-144.964
X125.226Y-76.384
X125.226Y-144.964
X127.766Y-76.384
X127.766Y-144.964
X130.306Y-76.384
X130.306Y-144.964
X132.846Y-76.384
X132.846Y-144.964
X135.386Y-76.384
X135.386Y-144.964
X137.926Y-76.384
X137.926Y-144.964
X140.466Y-76.384
X140.466Y-144.964
X147.605Y-163.708
X148.305Y-57.508
X150.145Y-163.708
X150.845Y-57.508
X152.685Y-163.708
X153.385Y-57.508
X153.774Y-75.484
X153.774Y-144.064
X155.225Y-163.708
X155.925Y-57.508
X156.314Y-75.484
X156.314Y-144.064
X157.765Y-163.708
X158.465Y-57.508
X158.854Y-75.484
X158.854Y-144.064
X160.305Y-163.708
X161.005Y-57.508
X161.394Y-75.484
X161.394Y-144.064
X162.845Y-163.708
X163.545Y-57.508
X163.934Y-75.484
X163.934Y-144.064
X165.385Y-163.708
X166.085Y-57.508
X166.474Y-75.484
X166.474Y-144.064
X167.925Y-163.708
X168.17Y-83.01
X168.17Y-85.55
X168.17Y-88.09
X168.17Y-90.63
X168.17Y-93.17
X168.17Y-95.71
X168.17Y-98.25
X168.17Y-100.79
X168.625Y-57.508
X169.014Y-75.484
X169.014Y-144.064
X170.465Y-163.708
X171.165Y-57.508
X171.554Y-75.484
X171.554Y-144.064
X173.005Y-163.708
X173.705Y-57.508
X174.094Y-75.484
X174.094Y-144.064
X176.634Y-75.484
X176.634Y-144.064
X179.174Y-75.484
X179.174Y-144.064
X180.87Y-83.01
X180.87Y-85.55
X180.87Y-88.09
X180.87Y-90.63
X180.87Y-93.17
X180.87Y-95.71
X180.87Y-98.25
X180.87Y-100.79
X181.714Y-75.484
X181.714Y-144.064
X184.254Y-75.484
X184.254Y-144.064
X186.794Y-75.484
X186.794Y-78.024
X186.794Y-80.564
X186.794Y-83.104
X186.794Y-85.644
X186.794Y-88.184
X186.794Y-90.724
X186.794Y-93.264
X186.794Y-95.804
X186.794Y-98.344
X186.794Y-100.884
X186.794Y-103.424
X186.794Y-105.964
X186.794Y-108.504
X186.794Y-111.044
X186.794Y-113.584
X186.794Y-116.124
X186.794Y-118.664
X186.794Y-121.204
X186.794Y-123.744
X186.794Y-126.284
X186.794Y-128.824
X186.794Y-131.364
X186.794Y-133.904
X186.794Y-136.444
X186.794Y-138.984
X186.794Y-141.524
X186.794Y-144.064
X190.028Y-63.963
X190.028Y-66.503
X190.028Y-151.463
X190.028Y-154.003
X193.177Y-96.113
X193.177Y-98.653
X193.177Y-101.193
X193.177Y-103.733
X193.177Y-106.273
X193.177Y-108.813
X193.177Y-111.353
X193.177Y-113.893
X193.177Y-116.433
X193.177Y-118.973
X193.177Y-121.513
X195.528Y-63.963
X195.528Y-66.503
X195.528Y-151.463
X195.528Y-154.003
X201.677Y-75.513
X201.677Y-78.053
X201.677Y-139.963
X201.677Y-142.503
X207.177Y-75.513
X207.177Y-78.053
X207.177Y-139.963
X207.177Y-142.503
X210.077Y-88.363
X210.077Y-90.903
X210.127Y-127.163
X210.127Y-129.703
X213.528Y-101.713
X213.528Y-104.253
X213.528Y-113.863
X213.528Y-116.403
X215.577Y-88.363
X215.577Y-90.903
X215.627Y-127.163
X215.627Y-129.703
X219.028Y-101.713
X219.028Y-104.253
X219.028Y-113.863
X219.028Y-116.403
X228.327Y-107.757
X228.327Y-110.297
X233.827Y-107.757
X233.827Y-110.297
T6
X144.968Y-134.983
X144.968Y-139.983
M30
