%TF.GenerationSoftware,KiCad,Pcbnew,10.0.0*%
%TF.CreationDate,2026-04-30T17:57:32+05:30*%
%TF.ProjectId,line follower simple,6c696e65-2066-46f6-9c6c-6f7765722073,rev?*%
%TF.SameCoordinates,Original*%
%TF.FileFunction,Soldermask,Top*%
%TF.FilePolarity,Negative*%
%FSLAX46Y46*%
G04 Gerber Fmt 4.6, Leading zero omitted, Abs format (unit mm)*
G04 Created by KiCad (PCBNEW 10.0.0) date 2026-04-30 17:57:32*
%MOMM*%
%LPD*%
G01*
G04 APERTURE LIST*
G04 Aperture macros list*
%AMRoundRect*
0 Rectangle with rounded corners*
0 $1 Rounding radius*
0 $2 $3 $4 $5 $6 $7 $8 $9 X,Y pos of 4 corners*
0 Add a 4 corners polygon primitive as box body*
4,1,4,$2,$3,$4,$5,$6,$7,$8,$9,$2,$3,0*
0 Add four circle primitives for the rounded corners*
1,1,$1+$1,$2,$3*
1,1,$1+$1,$4,$5*
1,1,$1+$1,$6,$7*
1,1,$1+$1,$8,$9*
0 Add four rect primitives between the rounded corners*
20,1,$1+$1,$2,$3,$4,$5,0*
20,1,$1+$1,$4,$5,$6,$7,0*
20,1,$1+$1,$6,$7,$8,$9,0*
20,1,$1+$1,$8,$9,$2,$3,0*%
%AMFreePoly0*
4,1,7,1.050000,-0.975000,-0.250000,-0.975000,-0.250000,-0.625000,-1.050000,-0.625000,-1.050000,0.975000,1.050000,0.975000,1.050000,-0.975000,1.050000,-0.975000,$1*%
%AMFreePoly1*
4,1,7,1.050000,-0.625000,0.250000,-0.625000,0.250000,-0.975000,-1.050000,-0.975000,-1.050000,0.975000,1.050000,0.975000,1.050000,-0.625000,1.050000,-0.625000,$1*%
G04 Aperture macros list end*
%ADD10RoundRect,0.237500X-0.250000X-0.237500X0.250000X-0.237500X0.250000X0.237500X-0.250000X0.237500X0*%
%ADD11RoundRect,0.237500X-0.237500X0.250000X-0.237500X-0.250000X0.237500X-0.250000X0.237500X0.250000X0*%
%ADD12RoundRect,0.237500X0.250000X0.237500X-0.250000X0.237500X-0.250000X-0.237500X0.250000X-0.237500X0*%
%ADD13RoundRect,0.237500X0.237500X-0.250000X0.237500X0.250000X-0.237500X0.250000X-0.237500X-0.250000X0*%
%ADD14RoundRect,0.075000X0.475000X-0.075000X0.475000X0.075000X-0.475000X0.075000X-0.475000X-0.075000X0*%
%ADD15FreePoly0,90.000000*%
%ADD16FreePoly1,90.000000*%
%ADD17C,2.000000*%
%ADD18RoundRect,0.237500X-0.237500X0.300000X-0.237500X-0.300000X0.237500X-0.300000X0.237500X0.300000X0*%
%ADD19R,1.700000X1.700000*%
%ADD20C,1.700000*%
%ADD21C,0.500000*%
%ADD22RoundRect,0.075000X-0.475000X0.075000X-0.475000X-0.075000X0.475000X-0.075000X0.475000X0.075000X0*%
%ADD23FreePoly0,270.000000*%
%ADD24FreePoly1,270.000000*%
%ADD25C,1.524000*%
%ADD26RoundRect,0.102000X0.300000X-1.000000X0.300000X1.000000X-0.300000X1.000000X-0.300000X-1.000000X0*%
%ADD27C,2.100000*%
%ADD28R,2.500000X1.500000*%
%ADD29R,1.800000X1.800000*%
%ADD30C,1.800000*%
%ADD31RoundRect,0.075000X0.075000X0.475000X-0.075000X0.475000X-0.075000X-0.475000X0.075000X-0.475000X0*%
%ADD32FreePoly0,180.000000*%
%ADD33FreePoly1,180.000000*%
%ADD34RoundRect,0.237500X0.300000X0.237500X-0.300000X0.237500X-0.300000X-0.237500X0.300000X-0.237500X0*%
%ADD35RoundRect,0.250000X0.350000X0.625000X-0.350000X0.625000X-0.350000X-0.625000X0.350000X-0.625000X0*%
%ADD36O,1.200000X1.750000*%
%ADD37RoundRect,0.075000X-0.075000X-0.475000X0.075000X-0.475000X0.075000X0.475000X-0.075000X0.475000X0*%
%ADD38FreePoly0,0.000000*%
%ADD39FreePoly1,0.000000*%
%ADD40C,1.000000*%
%ADD41C,2.500000*%
%ADD42RoundRect,0.102000X-0.800000X-0.800000X0.800000X-0.800000X0.800000X0.800000X-0.800000X0.800000X0*%
%ADD43C,1.804000*%
%ADD44RoundRect,0.750000X0.750000X-0.750000X0.750000X0.750000X-0.750000X0.750000X-0.750000X-0.750000X0*%
%ADD45C,3.000000*%
G04 APERTURE END LIST*
D10*
%TO.C,R104*%
X164330000Y-183307700D03*
X166155000Y-183307700D03*
%TD*%
D11*
%TO.C,R72*%
X194577500Y-71720200D03*
X194577500Y-73545200D03*
%TD*%
D12*
%TO.C,R116*%
X176205000Y-181307700D03*
X174380000Y-181307700D03*
%TD*%
D13*
%TO.C,R54*%
X198777500Y-142395200D03*
X198777500Y-140570200D03*
%TD*%
D14*
%TO.C,J2*%
X54927500Y-116332700D03*
X54927500Y-115832700D03*
X54927500Y-115332700D03*
X54927500Y-114832700D03*
X54927500Y-114332700D03*
X54927500Y-113832700D03*
X54927500Y-113332700D03*
X54927500Y-112832700D03*
X54927500Y-112332700D03*
X54927500Y-111832700D03*
X54927500Y-111332700D03*
X54927500Y-110832700D03*
X54927500Y-110332700D03*
X54927500Y-109832700D03*
X54927500Y-109332700D03*
X54927500Y-108832700D03*
X54927500Y-108332700D03*
X54927500Y-107832700D03*
X54927500Y-107332700D03*
X54927500Y-106832700D03*
D15*
X56052500Y-118582700D03*
D16*
X56052500Y-104582700D03*
%TD*%
D12*
%TO.C,R128*%
X177230000Y-34757700D03*
X175405000Y-34757700D03*
%TD*%
D10*
%TO.C,R118*%
X144280000Y-179357700D03*
X146105000Y-179357700D03*
%TD*%
D11*
%TO.C,R46*%
X43927500Y-155670200D03*
X43927500Y-157495200D03*
%TD*%
D10*
%TO.C,R10*%
X186555000Y-36507700D03*
X188380000Y-36507700D03*
%TD*%
D17*
%TO.C,H4*%
X58457500Y-100882700D03*
%TD*%
D10*
%TO.C,R100*%
X124380000Y-179357700D03*
X126205000Y-179357700D03*
%TD*%
D13*
%TO.C,R41*%
X31377500Y-97445200D03*
X31377500Y-95620200D03*
%TD*%
D18*
%TO.C,C2*%
X87867500Y-83270200D03*
X87867500Y-84995200D03*
%TD*%
D19*
%TO.C,J19*%
X148305000Y-57507700D03*
D20*
X150845000Y-57507700D03*
X153385000Y-57507700D03*
X155925000Y-57507700D03*
X158465000Y-57507700D03*
X161005000Y-57507700D03*
X163545000Y-57507700D03*
X166085000Y-57507700D03*
X168625000Y-57507700D03*
X171165000Y-57507700D03*
X173705000Y-57507700D03*
%TD*%
D10*
%TO.C,R119*%
X174380000Y-179257700D03*
X176205000Y-179257700D03*
%TD*%
D21*
%TO.C,mouse-bite-2.54mm-slot*%
X149567500Y-124982700D03*
X151767500Y-124982700D03*
X149567500Y-124182700D03*
X151767500Y-124182700D03*
X149567500Y-123382700D03*
X151767500Y-123382700D03*
%TD*%
%TO.C,REF\u002A\u002A*%
X124567500Y-173470200D03*
X124567500Y-174970200D03*
X125417500Y-173470200D03*
X125417500Y-174970200D03*
X126267500Y-173470200D03*
X126267500Y-174970200D03*
%TD*%
D11*
%TO.C,R82*%
X43577500Y-65870200D03*
X43577500Y-67695200D03*
%TD*%
%TO.C,R26*%
X54427500Y-164570200D03*
X54427500Y-166395200D03*
%TD*%
D12*
%TO.C,R74*%
X230090000Y-113032700D03*
X228265000Y-113032700D03*
%TD*%
D11*
%TO.C,R31*%
X36327500Y-135770200D03*
X36327500Y-137595200D03*
%TD*%
D22*
%TO.C,J6*%
X201277500Y-104232700D03*
X201277500Y-104732700D03*
X201277500Y-105232700D03*
X201277500Y-105732700D03*
X201277500Y-106232700D03*
X201277500Y-106732700D03*
X201277500Y-107232700D03*
X201277500Y-107732700D03*
X201277500Y-108232700D03*
X201277500Y-108732700D03*
X201277500Y-109232700D03*
X201277500Y-109732700D03*
X201277500Y-110232700D03*
X201277500Y-110732700D03*
X201277500Y-111232700D03*
X201277500Y-111732700D03*
X201277500Y-112232700D03*
X201277500Y-112732700D03*
X201277500Y-113232700D03*
X201277500Y-113732700D03*
D23*
X200152500Y-101982700D03*
D24*
X200152500Y-115982700D03*
%TD*%
D25*
%TO.C,BlackPill1*%
X85147500Y-133092700D03*
X85147500Y-130552700D03*
X85147500Y-128012700D03*
X85147500Y-125472700D03*
X85147500Y-122932700D03*
X85147500Y-120392700D03*
X85147500Y-117852700D03*
X85147500Y-115312700D03*
X85147500Y-112772700D03*
X85147500Y-110232700D03*
X85147500Y-107692700D03*
X85147500Y-105152700D03*
X85147500Y-102612700D03*
X85147500Y-100072700D03*
X85147500Y-97532700D03*
X85147500Y-94992700D03*
X85147500Y-92452700D03*
X85147500Y-89912700D03*
X85147500Y-87372700D03*
X85147500Y-84832700D03*
X100387500Y-133092700D03*
X100387500Y-130552700D03*
X100387500Y-128012700D03*
X100387500Y-125472700D03*
X100387500Y-122932700D03*
X100387500Y-120392700D03*
X100387500Y-117852700D03*
X100387500Y-115312700D03*
X100387500Y-112772700D03*
X100387500Y-110232700D03*
X100387500Y-107692700D03*
X100387500Y-105152700D03*
X100387500Y-102612700D03*
X100387500Y-100072700D03*
X100387500Y-97532700D03*
X100387500Y-94992700D03*
X100387500Y-92452700D03*
X100387500Y-89912700D03*
X100387500Y-87372700D03*
X100387500Y-84832700D03*
%TD*%
%TO.C,MP1*%
X181960000Y-112870000D03*
X179500000Y-112850000D03*
X169540000Y-112830000D03*
X167000000Y-112850000D03*
X182000000Y-135350000D03*
X179540000Y-135350000D03*
X169580000Y-135330000D03*
X166980000Y-135310000D03*
%TD*%
D12*
%TO.C,R117*%
X161105000Y-196057700D03*
X159280000Y-196057700D03*
%TD*%
D10*
%TO.C,R102*%
X184330000Y-179407700D03*
X186155000Y-179407700D03*
%TD*%
%TO.C,R103*%
X134280000Y-183407700D03*
X136105000Y-183407700D03*
%TD*%
D13*
%TO.C,R45*%
X40277500Y-87645200D03*
X40277500Y-85820200D03*
%TD*%
D11*
%TO.C,R37*%
X29677500Y-105720200D03*
X29677500Y-107545200D03*
%TD*%
D21*
%TO.C,REF\u002A\u002A*%
X135017500Y-47020200D03*
X135017500Y-48520200D03*
X135867500Y-47020200D03*
X135867500Y-48520200D03*
X136717500Y-47020200D03*
X136717500Y-48520200D03*
%TD*%
D12*
%TO.C,R59*%
X215090000Y-119124128D03*
X213265000Y-119124128D03*
%TD*%
D11*
%TO.C,R91*%
X75677500Y-49720200D03*
X75677500Y-51545200D03*
%TD*%
D17*
%TO.C,H2*%
X73567500Y-100132700D03*
%TD*%
D10*
%TO.C,R67*%
X205527500Y-80732700D03*
X207352500Y-80732700D03*
%TD*%
D21*
%TO.C,REF\u002A\u002A*%
X134417500Y-173470200D03*
X134417500Y-174970200D03*
X135267500Y-173470200D03*
X135267500Y-174970200D03*
X136117500Y-173470200D03*
X136117500Y-174970200D03*
%TD*%
D11*
%TO.C,R85*%
X54377500Y-56620200D03*
X54377500Y-58445200D03*
%TD*%
D13*
%TO.C,R39*%
X33777500Y-107845200D03*
X33777500Y-106020200D03*
%TD*%
D12*
%TO.C,R133*%
X164730000Y-14757700D03*
X162905000Y-14757700D03*
%TD*%
D13*
%TO.C,R81*%
X42777500Y-77695200D03*
X42777500Y-75870200D03*
%TD*%
D21*
%TO.C,mouse-bite-2.54mm-slot*%
X65017500Y-105982700D03*
X67217500Y-105982700D03*
X65017500Y-105182700D03*
X67217500Y-105182700D03*
X65017500Y-104382700D03*
X67217500Y-104382700D03*
%TD*%
D10*
%TO.C,R109*%
X134280000Y-179357700D03*
X136105000Y-179357700D03*
%TD*%
%TO.C,R105*%
X194330000Y-183357700D03*
X196155000Y-183357700D03*
%TD*%
D17*
%TO.C,H1*%
X73567500Y-121532700D03*
%TD*%
D12*
%TO.C,R18*%
X131330000Y-34807700D03*
X129505000Y-34807700D03*
%TD*%
D26*
%TO.C,U1*%
X37377500Y-116382700D03*
X38647500Y-116382700D03*
X39917500Y-116382700D03*
X41187500Y-116382700D03*
X42457500Y-116382700D03*
X43727500Y-116382700D03*
X44997500Y-116382700D03*
X46267500Y-116382700D03*
X47537500Y-116382700D03*
X48807500Y-116382700D03*
X50077500Y-116382700D03*
X51347500Y-116382700D03*
X51347500Y-106982700D03*
X50077500Y-106982700D03*
X48807500Y-106982700D03*
X47537500Y-106982700D03*
X46267500Y-106982700D03*
X44997500Y-106982700D03*
X43727500Y-106982700D03*
X42457500Y-106982700D03*
X41187500Y-106982700D03*
X39917500Y-106982700D03*
X38647500Y-106982700D03*
X37377500Y-106982700D03*
%TD*%
D27*
%TO.C,REF\u002A\u002A*%
X141317500Y-158932700D03*
%TD*%
D13*
%TO.C,R84*%
X47927500Y-67845200D03*
X47927500Y-66020200D03*
%TD*%
D10*
%TO.C,R96*%
X184380000Y-183457700D03*
X186205000Y-183457700D03*
%TD*%
D12*
%TO.C,R124*%
X120230000Y-34657700D03*
X118405000Y-34657700D03*
%TD*%
D20*
%TO.C,TB1*%
X180870000Y-100790200D03*
X180870000Y-98250200D03*
X180870000Y-95710200D03*
X180870000Y-93170200D03*
X180870000Y-90630200D03*
X180870000Y-88090200D03*
X180870000Y-85550200D03*
X180870000Y-83010200D03*
X168170000Y-100790200D03*
X168170000Y-98250200D03*
X168170000Y-95710200D03*
X168170000Y-93170200D03*
X168170000Y-90630200D03*
X168170000Y-88090200D03*
X168170000Y-85550200D03*
X168170000Y-83010200D03*
%TD*%
D11*
%TO.C,R28*%
X38677500Y-145770200D03*
X38677500Y-147595200D03*
%TD*%
D12*
%TO.C,R99*%
X186205000Y-181357700D03*
X184380000Y-181357700D03*
%TD*%
D19*
%TO.C,J16*%
X69417500Y-123532700D03*
D20*
X69417500Y-120992700D03*
X69417500Y-118452700D03*
X69417500Y-115912700D03*
X69417500Y-113372700D03*
X69417500Y-110832700D03*
X69417500Y-108292700D03*
X69417500Y-105752700D03*
X69417500Y-103212700D03*
X69417500Y-100672700D03*
X69417500Y-98132700D03*
%TD*%
D19*
%TO.C,J17*%
X193177500Y-96112700D03*
D20*
X193177500Y-98652700D03*
X193177500Y-101192700D03*
X193177500Y-103732700D03*
X193177500Y-106272700D03*
X193177500Y-108812700D03*
X193177500Y-111352700D03*
X193177500Y-113892700D03*
X193177500Y-116432700D03*
X193177500Y-118972700D03*
X193177500Y-121512700D03*
%TD*%
D12*
%TO.C,R71*%
X191802500Y-69332700D03*
X189977500Y-69332700D03*
%TD*%
D10*
%TO.C,R64*%
X213977500Y-93582700D03*
X215802500Y-93582700D03*
%TD*%
D11*
%TO.C,R88*%
X64177500Y-51270200D03*
X64177500Y-53095200D03*
%TD*%
D19*
%TO.C,J10*%
X109986100Y-144963700D03*
D20*
X112526100Y-144963700D03*
X115066100Y-144963700D03*
X117606100Y-144963700D03*
X120146100Y-144963700D03*
X122686100Y-144963700D03*
X125226100Y-144963700D03*
X127766100Y-144963700D03*
X130306100Y-144963700D03*
X132846100Y-144963700D03*
X135386100Y-144963700D03*
X137926100Y-144963700D03*
X140466100Y-144963700D03*
%TD*%
D10*
%TO.C,R73*%
X232065000Y-112932700D03*
X233890000Y-112932700D03*
%TD*%
D12*
%TO.C,R121*%
X135930000Y-30657700D03*
X134105000Y-30657700D03*
%TD*%
D19*
%TO.C,BT2*%
X83727500Y-143932700D03*
D20*
X86267500Y-143932700D03*
X88807500Y-143932700D03*
X91347500Y-143932700D03*
X93887500Y-143932700D03*
X96427500Y-143932700D03*
%TD*%
D10*
%TO.C,R15*%
X163955000Y-36657700D03*
X165780000Y-36657700D03*
%TD*%
D12*
%TO.C,R132*%
X148280000Y-30357700D03*
X146455000Y-30357700D03*
%TD*%
D17*
%TO.C,H12*%
X171767500Y-53007700D03*
%TD*%
D21*
%TO.C,mouse-bite-2.54mm-slot*%
X64967500Y-120082700D03*
X67167500Y-120082700D03*
X64967500Y-119282700D03*
X67167500Y-119282700D03*
X64967500Y-118482700D03*
X67167500Y-118482700D03*
%TD*%
D10*
%TO.C,R51*%
X192115000Y-148382700D03*
X193940000Y-148382700D03*
%TD*%
D12*
%TO.C,R129*%
X142980000Y-34457700D03*
X141155000Y-34457700D03*
%TD*%
D13*
%TO.C,R60*%
X210077500Y-116386628D03*
X210077500Y-114561628D03*
%TD*%
D12*
%TO.C,R126*%
X159480000Y-30407700D03*
X157655000Y-30407700D03*
%TD*%
D11*
%TO.C,R43*%
X36177500Y-85720200D03*
X36177500Y-87545200D03*
%TD*%
D13*
%TO.C,R90*%
X68127500Y-53145200D03*
X68127500Y-51320200D03*
%TD*%
D10*
%TO.C,R130*%
X161855000Y-19107700D03*
X163680000Y-19107700D03*
%TD*%
%TO.C,R49*%
X193615000Y-156788414D03*
X195440000Y-156788414D03*
%TD*%
D12*
%TO.C,R108*%
X196205000Y-181307700D03*
X194380000Y-181307700D03*
%TD*%
D17*
%TO.C,H10*%
X149555000Y-168357700D03*
%TD*%
D10*
%TO.C,R3*%
X118455000Y-36507700D03*
X120280000Y-36507700D03*
%TD*%
D19*
%TO.C,J11*%
X109986100Y-76383700D03*
D20*
X112526100Y-76383700D03*
X115066100Y-76383700D03*
X117606100Y-76383700D03*
X120146100Y-76383700D03*
X122686100Y-76383700D03*
X125226100Y-76383700D03*
X127766100Y-76383700D03*
X130306100Y-76383700D03*
X132846100Y-76383700D03*
X135386100Y-76383700D03*
X137926100Y-76383700D03*
X140466100Y-76383700D03*
%TD*%
D10*
%TO.C,R61*%
X217315000Y-107002700D03*
X219140000Y-107002700D03*
%TD*%
D12*
%TO.C,R62*%
X215140000Y-107102700D03*
X213315000Y-107102700D03*
%TD*%
D27*
%TO.C,REF\u002A\u002A*%
X141217500Y-62832700D03*
%TD*%
D10*
%TO.C,R113*%
X174430000Y-183407700D03*
X176255000Y-183407700D03*
%TD*%
D17*
%TO.C,H11*%
X150367500Y-53007700D03*
%TD*%
D13*
%TO.C,R29*%
X40777500Y-147595200D03*
X40777500Y-145770200D03*
%TD*%
%TO.C,R78*%
X40427500Y-77295200D03*
X40427500Y-75470200D03*
%TD*%
%TO.C,R83*%
X45527500Y-67595200D03*
X45527500Y-65770200D03*
%TD*%
D11*
%TO.C,R2*%
X89717500Y-83220200D03*
X89717500Y-85045200D03*
%TD*%
D12*
%TO.C,R127*%
X124830000Y-30607700D03*
X123005000Y-30607700D03*
%TD*%
D13*
%TO.C,R32*%
X38377500Y-137595200D03*
X38377500Y-135770200D03*
%TD*%
D28*
%TO.C,SW2*%
X93435500Y-78382700D03*
X101935500Y-78382700D03*
%TD*%
D13*
%TO.C,R42*%
X33627500Y-97745200D03*
X33627500Y-95920200D03*
%TD*%
D12*
%TO.C,R12*%
X163730000Y-21107700D03*
X161905000Y-21107700D03*
%TD*%
%TO.C,R123*%
X154080000Y-34657700D03*
X152255000Y-34657700D03*
%TD*%
D11*
%TO.C,R40*%
X29527500Y-95670200D03*
X29527500Y-97495200D03*
%TD*%
D17*
%TO.C,H3*%
X58457500Y-122282700D03*
%TD*%
%TO.C,H8*%
X198677500Y-119682700D03*
%TD*%
D13*
%TO.C,R69*%
X198977500Y-77845200D03*
X198977500Y-76020200D03*
%TD*%
D11*
%TO.C,R21*%
X58227500Y-164570200D03*
X58227500Y-166395200D03*
%TD*%
D12*
%TO.C,R97*%
X126255000Y-181107700D03*
X124430000Y-181107700D03*
%TD*%
D11*
%TO.C,R23*%
X64227500Y-170670200D03*
X64227500Y-172495200D03*
%TD*%
D12*
%TO.C,R16*%
X165780000Y-34607700D03*
X163955000Y-34607700D03*
%TD*%
D13*
%TO.C,R25*%
X66127500Y-172445200D03*
X66127500Y-170620200D03*
%TD*%
D11*
%TO.C,R36*%
X33577500Y-125670200D03*
X33577500Y-127495200D03*
%TD*%
D10*
%TO.C,R14*%
X152205000Y-36657700D03*
X154030000Y-36657700D03*
%TD*%
D29*
%TO.C,SW6*%
X159917500Y-121782700D03*
D30*
X157417500Y-121782700D03*
X154917500Y-121782700D03*
X159917500Y-115782700D03*
X157417500Y-115782700D03*
X154917500Y-115782700D03*
%TD*%
D12*
%TO.C,R68*%
X203352500Y-80732700D03*
X201527500Y-80732700D03*
%TD*%
D11*
%TO.C,R19*%
X79527500Y-171570200D03*
X79527500Y-173395200D03*
%TD*%
D13*
%TO.C,R89*%
X66077500Y-53095200D03*
X66077500Y-51270200D03*
%TD*%
D31*
%TO.C,J9*%
X164992500Y-171507700D03*
X164492500Y-171507700D03*
X163992500Y-171507700D03*
X163492500Y-171507700D03*
X162992500Y-171507700D03*
X162492500Y-171507700D03*
X161992500Y-171507700D03*
X161492500Y-171507700D03*
X160992500Y-171507700D03*
X160492500Y-171507700D03*
X159992500Y-171507700D03*
X159492500Y-171507700D03*
X158992500Y-171507700D03*
X158492500Y-171507700D03*
X157992500Y-171507700D03*
X157492500Y-171507700D03*
X156992500Y-171507700D03*
X156492500Y-171507700D03*
X155992500Y-171507700D03*
X155492500Y-171507700D03*
D32*
X167242500Y-170382700D03*
D33*
X153242500Y-170382700D03*
%TD*%
D17*
%TO.C,H7*%
X198677500Y-98282700D03*
%TD*%
D11*
%TO.C,R22*%
X75577500Y-171720200D03*
X75577500Y-173545200D03*
%TD*%
D13*
%TO.C,R77*%
X31727500Y-117645200D03*
X31727500Y-115820200D03*
%TD*%
D12*
%TO.C,R7*%
X204430000Y-30157700D03*
X202605000Y-30157700D03*
%TD*%
D10*
%TO.C,R13*%
X129505000Y-36757700D03*
X131330000Y-36757700D03*
%TD*%
%TO.C,R111*%
X194380000Y-179407700D03*
X196205000Y-179407700D03*
%TD*%
D13*
%TO.C,R38*%
X31777500Y-107595200D03*
X31777500Y-105770200D03*
%TD*%
D10*
%TO.C,R52*%
X205415000Y-145116985D03*
X207240000Y-145116985D03*
%TD*%
D17*
%TO.C,H9*%
X170955000Y-168157700D03*
%TD*%
D10*
%TO.C,R94*%
X124430000Y-183307700D03*
X126255000Y-183307700D03*
%TD*%
D13*
%TO.C,R44*%
X38177500Y-87395200D03*
X38177500Y-85570200D03*
%TD*%
D10*
%TO.C,R9*%
X175355000Y-36707700D03*
X177180000Y-36707700D03*
%TD*%
D22*
%TO.C,J7*%
X78217500Y-106082700D03*
X78217500Y-106582700D03*
X78217500Y-107082700D03*
X78217500Y-107582700D03*
X78217500Y-108082700D03*
X78217500Y-108582700D03*
X78217500Y-109082700D03*
X78217500Y-109582700D03*
X78217500Y-110082700D03*
X78217500Y-110582700D03*
X78217500Y-111082700D03*
X78217500Y-111582700D03*
X78217500Y-112082700D03*
X78217500Y-112582700D03*
X78217500Y-113082700D03*
X78217500Y-113582700D03*
X78217500Y-114082700D03*
X78217500Y-114582700D03*
X78217500Y-115082700D03*
X78217500Y-115582700D03*
D23*
X77092500Y-103832700D03*
D24*
X77092500Y-117832700D03*
%TD*%
D21*
%TO.C,mouse-bite-2.54mm-slot*%
X149567500Y-93282700D03*
X151767500Y-93282700D03*
X149567500Y-92482700D03*
X151767500Y-92482700D03*
X149567500Y-91682700D03*
X151767500Y-91682700D03*
%TD*%
D28*
%TO.C,SW3*%
X89249500Y-78482700D03*
X80749500Y-78482700D03*
%TD*%
D12*
%TO.C,R115*%
X146105000Y-181257700D03*
X144280000Y-181257700D03*
%TD*%
D21*
%TO.C,mouse-bite-2.54mm-slot*%
X188867500Y-114932700D03*
X191067500Y-114932700D03*
X188867500Y-114132700D03*
X191067500Y-114132700D03*
X188867500Y-113332700D03*
X191067500Y-113332700D03*
%TD*%
D10*
%TO.C,R120*%
X159330000Y-194207700D03*
X161155000Y-194207700D03*
%TD*%
D12*
%TO.C,R56*%
X211990000Y-132395557D03*
X210165000Y-132395557D03*
%TD*%
D29*
%TO.C,SW5*%
X159917500Y-96382700D03*
D30*
X157417500Y-96382700D03*
X154917500Y-96382700D03*
X159917500Y-90382700D03*
X157417500Y-90382700D03*
X154917500Y-90382700D03*
%TD*%
D11*
%TO.C,R48*%
X38477500Y-75570200D03*
X38477500Y-77395200D03*
%TD*%
D13*
%TO.C,R93*%
X79677500Y-51745200D03*
X79677500Y-49920200D03*
%TD*%
%TO.C,R24*%
X77527500Y-173345200D03*
X77527500Y-171520200D03*
%TD*%
D19*
%TO.C,J15*%
X62777500Y-98922700D03*
D20*
X62777500Y-101462700D03*
X62777500Y-104002700D03*
X62777500Y-106542700D03*
X62777500Y-109082700D03*
X62777500Y-111622700D03*
X62777500Y-114162700D03*
X62777500Y-116702700D03*
X62777500Y-119242700D03*
X62777500Y-121782700D03*
X62777500Y-124322700D03*
%TD*%
D21*
%TO.C,REF\u002A\u002A*%
X123917500Y-47020200D03*
X123917500Y-48520200D03*
X124767500Y-47020200D03*
X124767500Y-48520200D03*
X125617500Y-47020200D03*
X125617500Y-48520200D03*
%TD*%
D12*
%TO.C,R17*%
X170480000Y-30457700D03*
X168655000Y-30457700D03*
%TD*%
D11*
%TO.C,R47*%
X29777500Y-115820200D03*
X29777500Y-117645200D03*
%TD*%
%TO.C,R30*%
X42527500Y-145770200D03*
X42527500Y-147595200D03*
%TD*%
D12*
%TO.C,R107*%
X166205000Y-180957700D03*
X164380000Y-180957700D03*
%TD*%
D17*
%TO.C,H5*%
X50827500Y-122532700D03*
%TD*%
D12*
%TO.C,R53*%
X203440000Y-145166985D03*
X201615000Y-145166985D03*
%TD*%
%TO.C,R122*%
X188380000Y-34557700D03*
X186555000Y-34557700D03*
%TD*%
D19*
%TO.C,J12*%
X184253600Y-75484400D03*
D20*
X181713600Y-75484400D03*
X179173600Y-75484400D03*
X176633600Y-75484400D03*
X174093600Y-75484400D03*
X171553600Y-75484400D03*
X169013600Y-75484400D03*
X166473600Y-75484400D03*
X163933600Y-75484400D03*
X161393600Y-75484400D03*
X158853600Y-75484400D03*
X156313600Y-75484400D03*
X153773600Y-75484400D03*
%TD*%
D13*
%TO.C,R66*%
X206727500Y-91045200D03*
X206727500Y-89220200D03*
%TD*%
D10*
%TO.C,R95*%
X154330000Y-183357700D03*
X156155000Y-183357700D03*
%TD*%
%TO.C,R114*%
X159330000Y-198357700D03*
X161155000Y-198357700D03*
%TD*%
D12*
%TO.C,R50*%
X191590000Y-156738414D03*
X189765000Y-156738414D03*
%TD*%
D34*
%TO.C,C10*%
X37570000Y-102832700D03*
X35845000Y-102832700D03*
%TD*%
D21*
%TO.C,mouse-bite-2.54mm-slot*%
X188867500Y-100832700D03*
X191067500Y-100832700D03*
X188867500Y-100032700D03*
X191067500Y-100032700D03*
X188867500Y-99232700D03*
X191067500Y-99232700D03*
%TD*%
D13*
%TO.C,R86*%
X56277500Y-58445200D03*
X56277500Y-56620200D03*
%TD*%
D12*
%TO.C,R65*%
X211752500Y-93632700D03*
X209927500Y-93632700D03*
%TD*%
D11*
%TO.C,R34*%
X29727500Y-125770200D03*
X29727500Y-127595200D03*
%TD*%
D19*
%TO.C,J5*%
X186793600Y-75484400D03*
D20*
X186793600Y-78024400D03*
X186793600Y-80564400D03*
X186793600Y-83104400D03*
X186793600Y-85644400D03*
X186793600Y-88184400D03*
X186793600Y-90724400D03*
X186793600Y-93264400D03*
X186793600Y-95804400D03*
X186793600Y-98344400D03*
X186793600Y-100884400D03*
X186793600Y-103424400D03*
X186793600Y-105964400D03*
X186793600Y-108504400D03*
X186793600Y-111044400D03*
X186793600Y-113584400D03*
X186793600Y-116124400D03*
X186793600Y-118664400D03*
X186793600Y-121204400D03*
X186793600Y-123744400D03*
X186793600Y-126284400D03*
X186793600Y-128824400D03*
X186793600Y-131364400D03*
X186793600Y-133904400D03*
X186793600Y-136444400D03*
X186793600Y-138984400D03*
X186793600Y-141524400D03*
X186793600Y-144064400D03*
%TD*%
D12*
%TO.C,R125*%
X192780000Y-30257700D03*
X190955000Y-30257700D03*
%TD*%
D19*
%TO.C,J18*%
X173005000Y-163707700D03*
D20*
X170465000Y-163707700D03*
X167925000Y-163707700D03*
X165385000Y-163707700D03*
X162845000Y-163707700D03*
X160305000Y-163707700D03*
X157765000Y-163707700D03*
X155225000Y-163707700D03*
X152685000Y-163707700D03*
X150145000Y-163707700D03*
X147605000Y-163707700D03*
%TD*%
D11*
%TO.C,R1*%
X94367500Y-83320200D03*
X94367500Y-85145200D03*
%TD*%
D12*
%TO.C,R4*%
X200030000Y-34757700D03*
X198205000Y-34757700D03*
%TD*%
D13*
%TO.C,R27*%
X56377500Y-166295200D03*
X56377500Y-164470200D03*
%TD*%
D10*
%TO.C,R55*%
X214015000Y-132445557D03*
X215840000Y-132445557D03*
%TD*%
D12*
%TO.C,R75*%
X224990000Y-110332700D03*
X223165000Y-110332700D03*
%TD*%
D10*
%TO.C,R101*%
X154230000Y-179257700D03*
X156055000Y-179257700D03*
%TD*%
D35*
%TO.C,J3*%
X117367500Y-150082700D03*
D36*
X115367500Y-150082700D03*
%TD*%
D37*
%TO.C,J14*%
X156317500Y-49307700D03*
X156817500Y-49307700D03*
X157317500Y-49307700D03*
X157817500Y-49307700D03*
X158317500Y-49307700D03*
X158817500Y-49307700D03*
X159317500Y-49307700D03*
X159817500Y-49307700D03*
X160317500Y-49307700D03*
X160817500Y-49307700D03*
X161317500Y-49307700D03*
X161817500Y-49307700D03*
X162317500Y-49307700D03*
X162817500Y-49307700D03*
X163317500Y-49307700D03*
X163817500Y-49307700D03*
X164317500Y-49307700D03*
X164817500Y-49307700D03*
X165317500Y-49307700D03*
X165817500Y-49307700D03*
D38*
X154067500Y-50432700D03*
D39*
X168067500Y-50432700D03*
%TD*%
D12*
%TO.C,R131*%
X181280000Y-30207700D03*
X179455000Y-30207700D03*
%TD*%
D10*
%TO.C,R112*%
X144330000Y-183407700D03*
X146155000Y-183407700D03*
%TD*%
D13*
%TO.C,R76*%
X45877500Y-157495200D03*
X45877500Y-155670200D03*
%TD*%
D10*
%TO.C,R11*%
X198255000Y-36657700D03*
X200080000Y-36657700D03*
%TD*%
D13*
%TO.C,R35*%
X31627500Y-127595200D03*
X31627500Y-125770200D03*
%TD*%
D27*
%TO.C,REF\u002A\u002A*%
X116567500Y-62832700D03*
%TD*%
D19*
%TO.C,J8*%
X107446100Y-144963700D03*
D20*
X107446100Y-142423700D03*
X107446100Y-139883700D03*
X107446100Y-137343700D03*
X107446100Y-134803700D03*
X107446100Y-132263700D03*
X107446100Y-129723700D03*
X107446100Y-127183700D03*
X107446100Y-124643700D03*
X107446100Y-122103700D03*
X107446100Y-119563700D03*
X107446100Y-117023700D03*
X107446100Y-114483700D03*
X107446100Y-111943700D03*
X107446100Y-109403700D03*
X107446100Y-106863700D03*
X107446100Y-104323700D03*
X107446100Y-101783700D03*
X107446100Y-99243700D03*
X107446100Y-96703700D03*
X107446100Y-94163700D03*
X107446100Y-91623700D03*
X107446100Y-89083700D03*
X107446100Y-86543700D03*
X107446100Y-84003700D03*
X107446100Y-81463700D03*
X107446100Y-78923700D03*
X107446100Y-76383700D03*
%TD*%
D13*
%TO.C,R87*%
X58577500Y-58695200D03*
X58577500Y-56870200D03*
%TD*%
D12*
%TO.C,R106*%
X136055000Y-181207700D03*
X134230000Y-181207700D03*
%TD*%
D18*
%TO.C,C1*%
X92567500Y-83370200D03*
X92567500Y-85095200D03*
%TD*%
D19*
%TO.C,J13*%
X184253600Y-144064400D03*
D20*
X181713600Y-144064400D03*
X179173600Y-144064400D03*
X176633600Y-144064400D03*
X174093600Y-144064400D03*
X171553600Y-144064400D03*
X169013600Y-144064400D03*
X166473600Y-144064400D03*
X163933600Y-144064400D03*
X161393600Y-144064400D03*
X158853600Y-144064400D03*
X156313600Y-144064400D03*
X153773600Y-144064400D03*
%TD*%
D13*
%TO.C,R57*%
X206777500Y-129708057D03*
X206777500Y-127883057D03*
%TD*%
D35*
%TO.C,J4*%
X118017500Y-72382700D03*
D36*
X116017500Y-72382700D03*
%TD*%
D17*
%TO.C,H6*%
X50827500Y-100632700D03*
%TD*%
D11*
%TO.C,R80*%
X33627500Y-115670200D03*
X33627500Y-117495200D03*
%TD*%
D12*
%TO.C,R98*%
X156105000Y-181207700D03*
X154280000Y-181207700D03*
%TD*%
D11*
%TO.C,R33*%
X40127500Y-135770200D03*
X40127500Y-137595200D03*
%TD*%
D27*
%TO.C,REF\u002A\u002A*%
X116667500Y-158932700D03*
%TD*%
D10*
%TO.C,R58*%
X217165000Y-119124128D03*
X218990000Y-119124128D03*
%TD*%
%TO.C,R70*%
X193727500Y-69282700D03*
X195552500Y-69282700D03*
%TD*%
%TO.C,R8*%
X141105000Y-36257700D03*
X142930000Y-36257700D03*
%TD*%
%TO.C,R110*%
X164380000Y-179107700D03*
X166205000Y-179107700D03*
%TD*%
D11*
%TO.C,R20*%
X68027500Y-170520200D03*
X68027500Y-172345200D03*
%TD*%
D13*
%TO.C,R92*%
X77627500Y-51545200D03*
X77627500Y-49720200D03*
%TD*%
D11*
%TO.C,R79*%
X47627500Y-155570200D03*
X47627500Y-157395200D03*
%TD*%
D13*
%TO.C,R63*%
X210127500Y-105165200D03*
X210127500Y-103340200D03*
%TD*%
D40*
%TO.C,U8*%
X208177500Y-87182700D03*
D41*
X212827500Y-87732700D03*
X212827500Y-91532700D03*
D42*
X210077500Y-90902700D03*
D43*
X210077500Y-88362700D03*
X215577500Y-88362700D03*
X215577500Y-90902700D03*
%TD*%
D40*
%TO.C,U4*%
X199777500Y-138782700D03*
D41*
X204427500Y-139332700D03*
X204427500Y-143132700D03*
D42*
X201677500Y-142502700D03*
D43*
X201677500Y-139962700D03*
X207177500Y-139962700D03*
X207177500Y-142502700D03*
%TD*%
D40*
%TO.C,U6*%
X211627500Y-112682700D03*
D41*
X216277500Y-113232700D03*
X216277500Y-117032700D03*
D42*
X213527500Y-116402700D03*
D43*
X213527500Y-113862700D03*
X219027500Y-113862700D03*
X219027500Y-116402700D03*
%TD*%
D29*
%TO.C,D7*%
X133742500Y-39007700D03*
D30*
X131202500Y-39007700D03*
%TD*%
D29*
%TO.C,D2*%
X145142500Y-39007700D03*
D30*
X142602500Y-39007700D03*
%TD*%
D40*
%TO.C,U20*%
X226427500Y-106576986D03*
D41*
X231077500Y-107126986D03*
X231077500Y-110926986D03*
D42*
X228327500Y-110296986D03*
D43*
X228327500Y-107756986D03*
X233827500Y-107756986D03*
X233827500Y-110296986D03*
%TD*%
D40*
%TO.C,U9*%
X199777500Y-74332700D03*
D41*
X204427500Y-74882700D03*
X204427500Y-78682700D03*
D42*
X201677500Y-78052700D03*
D43*
X201677500Y-75512700D03*
X207177500Y-75512700D03*
X207177500Y-78052700D03*
%TD*%
D29*
%TO.C,Q5*%
X156607500Y-32507700D03*
D30*
X154067500Y-32507700D03*
%TD*%
D29*
%TO.C,D6*%
X162292500Y-23457700D03*
D30*
X159752500Y-23457700D03*
%TD*%
D40*
%TO.C,U19*%
X188127500Y-62782700D03*
D41*
X192777500Y-63332700D03*
X192777500Y-67132700D03*
D42*
X190027500Y-66502700D03*
D43*
X190027500Y-63962700D03*
X195527500Y-63962700D03*
X195527500Y-66502700D03*
%TD*%
D40*
%TO.C,U5*%
X208227500Y-125982700D03*
D41*
X212877500Y-126532700D03*
X212877500Y-130332700D03*
D42*
X210127500Y-129702700D03*
D43*
X210127500Y-127162700D03*
X215627500Y-127162700D03*
X215627500Y-129702700D03*
%TD*%
D29*
%TO.C,Q9*%
X162292500Y-17007700D03*
D30*
X159752500Y-17007700D03*
%TD*%
D40*
%TO.C,U7*%
X211627500Y-100532700D03*
D41*
X216277500Y-101082700D03*
X216277500Y-104882700D03*
D42*
X213527500Y-104252700D03*
D43*
X213527500Y-101712700D03*
X219027500Y-101712700D03*
X219027500Y-104252700D03*
%TD*%
D40*
%TO.C,U2*%
X188127500Y-150282700D03*
D41*
X192777500Y-150832700D03*
X192777500Y-154632700D03*
D42*
X190027500Y-154002700D03*
D43*
X190027500Y-151462700D03*
X195527500Y-151462700D03*
X195527500Y-154002700D03*
%TD*%
D29*
%TO.C,Q2*%
X168042500Y-32507700D03*
D30*
X165502500Y-32507700D03*
%TD*%
D29*
%TO.C,Q3*%
X133742500Y-32557700D03*
D30*
X131202500Y-32557700D03*
%TD*%
D29*
%TO.C,D3*%
X179442500Y-39007700D03*
D30*
X176902500Y-39007700D03*
%TD*%
D44*
%TO.C,J1*%
X144967500Y-139982700D03*
D45*
X144967500Y-134982700D03*
%TD*%
D29*
%TO.C,Q7*%
X179442500Y-32557700D03*
D30*
X176902500Y-32557700D03*
%TD*%
D29*
%TO.C,Q6*%
X122292500Y-32557700D03*
D30*
X119752500Y-32557700D03*
%TD*%
D29*
%TO.C,D8*%
X156617500Y-38957700D03*
D30*
X154077500Y-38957700D03*
%TD*%
D29*
%TO.C,D1*%
X122292500Y-39007700D03*
D30*
X119752500Y-39007700D03*
%TD*%
D29*
%TO.C,D4*%
X190892500Y-38957700D03*
D30*
X188352500Y-38957700D03*
%TD*%
D29*
%TO.C,Q8*%
X145142500Y-32557700D03*
D30*
X142602500Y-32557700D03*
%TD*%
D29*
%TO.C,D9*%
X168042500Y-38957700D03*
D30*
X165502500Y-38957700D03*
%TD*%
D29*
%TO.C,Q4*%
X190892500Y-32507700D03*
D30*
X188352500Y-32507700D03*
%TD*%
D29*
%TO.C,D5*%
X202342500Y-39007700D03*
D30*
X199802500Y-39007700D03*
%TD*%
D29*
%TO.C,Q1*%
X202342500Y-32557700D03*
D30*
X199802500Y-32557700D03*
%TD*%
M02*
